<svg width="190" height="70" viewBox="0 0 190 70" fill="none" xmlns="http://www.w3.org/2000/svg">
<path d="M63.4276 24.166V45.9143H58.9951V24.166H63.4276Z" fill="#171717"/>
<path d="M81.5191 31.2527V45.9644C81.5191 50.531 77.9659 53.3383 73.6176 53.3383C69.426 53.3383 66.2943 50.7358 65.9932 47.0609L70.4137 47.085C70.5943 48.6513 71.9675 49.3261 73.7742 49.3261C75.4846 49.3261 77.0745 48.4103 77.0745 46.0247V44.145C75.9423 44.88 74.4969 45.3138 72.8829 45.3138C68.8358 45.3138 65.5957 42.0365 65.5957 38.2652C65.5957 33.8794 68.8478 30.9395 72.8829 30.9395C74.509 30.9395 75.9423 31.3732 77.0745 32.1082V31.313L81.5191 31.2527ZM77.0866 39.9159V36.3374C76.1832 35.024 74.9305 34.5903 73.6899 34.5903C71.5098 34.5903 69.9921 36.0482 69.9921 38.2652C69.9921 39.8918 71.5098 41.675 73.6899 41.675C74.9305 41.663 76.1832 41.2172 77.0866 39.9159Z" fill="#171717"/>
<path d="M99.2001 38.4086C99.2001 42.939 95.8516 46.1681 91.3588 46.1681C86.8299 46.1681 83.4814 42.939 83.4814 38.4086C83.4814 33.9143 86.8299 30.625 91.3588 30.625C95.8516 30.625 99.2001 33.9143 99.2001 38.4086ZM94.9241 38.4086C94.9241 36.2759 93.5269 34.5529 91.3588 34.5529C89.1667 34.5529 87.7694 36.2759 87.7694 38.4086C87.7694 40.6015 89.1667 42.2401 91.3588 42.2401C93.5149 42.2281 94.9241 40.6015 94.9241 38.4086Z" fill="#171717"/>
<path d="M126.723 31.2752V45.8905L122.375 45.9146V45.0832C121.243 45.8182 119.798 46.2761 118.184 46.2761C114.137 46.2761 110.896 42.8421 110.896 38.613C110.896 34.3597 114.149 30.9258 118.184 30.9258C119.81 30.9258 121.243 31.3836 122.375 32.1186V31.2872L126.723 31.2752ZM122.375 40.8541V36.3719C121.46 35.0706 120.183 34.7091 118.906 34.7091C116.678 34.7091 115.136 36.4924 115.136 38.625C115.136 40.7336 116.678 42.5168 118.906 42.5168C120.183 42.5048 121.46 42.1554 122.375 40.8541Z" fill="#171717"/>
<path d="M144.598 37.976V45.9162H140.322V38.4941C140.322 36.1084 139.129 34.8433 137.01 34.8433C135.901 34.8433 134.685 35.4819 133.637 36.7109V45.9162H129.265V31.3009H133.637V32.4094C134.829 31.4576 136.215 30.9395 137.865 30.9395C141.767 30.9395 144.598 33.6866 144.598 37.976Z" fill="#171717"/>
<path d="M56.9726 45.9014H52.4557L49.5168 34.973L43.1932 45.9014H38.1464L47.9028 28.9847L46.3369 23.1049L33.1718 45.9134H28.125L44.8072 16.9961H49.2277L51.1669 24.1772H55.732L52.6123 29.5992L56.9726 45.9014Z" fill="#171717"/>
<path d="M162.255 24.1663V45.9146H157.823V45.0832C156.69 45.8182 155.245 46.2761 153.631 46.2761C149.584 46.2761 146.344 42.8421 146.344 38.5889C146.344 34.3597 149.596 30.9258 153.631 30.9258C155.257 30.9258 156.69 31.3836 157.823 32.1186V24.1543L162.255 24.1663ZM157.823 40.8661V36.3478C156.895 35.0344 155.606 34.673 154.33 34.673C152.089 34.673 150.535 36.4683 150.535 38.5889C150.535 40.7456 152.089 42.5409 154.33 42.5409C155.606 42.5409 156.895 42.1794 157.823 40.8661Z" fill="#171717"/>
<path d="M110.101 34.9873C109.137 35.1078 106.873 35.2162 105.548 37.0476V45.9277H101.176V31.3244H105.548V32.4209C106.548 31.5654 108.053 31.0593 110.101 31.2642" fill="#171717"/>
</svg>
