<svg width="190" height="70" viewBox="0 0 190 70" fill="none" xmlns="http://www.w3.org/2000/svg">
<g clip-path="url(#clip0_1341_6813)">
<path d="M53.2575 28.0811H55.2484L60.8192 41.0127H58.189L56.9835 38.0537H51.3762L50.2072 41.0127H47.6318L53.2575 28.0811ZM56.1799 36.0811L54.189 30.8208L52.1615 36.0811H56.1799Z" fill="#171717"/>
<path d="M63.2871 28.0811H65.9355L69.4606 37.8528L73.0953 28.0811H75.5797L70.3557 41.0127H68.3649L63.2871 28.0811Z" fill="#171717"/>
<path d="M83.8041 28.0811H85.7954L91.3657 41.0127H88.7357L87.5305 38.0537H81.9228L80.7537 41.0127H78.1787L83.8041 28.0811ZM86.7266 36.0811L84.7358 30.8208L82.7084 36.0811H86.7266Z" fill="#171717"/>
<path d="M96.457 28.0811H98.7586V38.9304H104.256V41.0127H96.457V28.0811Z" fill="#171717"/>
<path d="M113.762 28.0811H115.753L121.324 41.0127H118.694L117.488 38.0537H111.881L110.712 41.0127H108.137L113.762 28.0811ZM116.685 36.0811L114.694 30.8208L112.666 36.0811H116.685Z" fill="#171717"/>
<path d="M126.416 28.0811H129.466L135.731 37.6884H135.768V28.0811H138.069V41.0127H135.147L128.754 31.0948H128.718V41.0127H126.416V28.0811Z" fill="#171717"/>
<path d="M153.482 31.1136C153.007 30.6023 152.544 30.2613 152.094 30.0908C151.655 29.9203 151.211 29.8351 150.761 29.8351C150.091 29.8351 149.482 29.9569 148.934 30.2004C148.398 30.4318 147.936 30.7606 147.546 31.1868C147.156 31.6007 146.852 32.0878 146.632 32.6479C146.425 33.2081 146.322 33.8108 146.322 34.4561C146.322 35.1502 146.425 35.7895 146.632 36.374C146.852 36.9585 147.156 37.4638 147.546 37.89C147.936 38.3161 148.398 38.651 148.934 38.8946C149.482 39.1381 150.091 39.2599 150.761 39.2599C151.284 39.2599 151.789 39.1381 152.277 38.8946C152.775 38.6388 153.238 38.237 153.665 37.689L155.564 39.0407C154.98 39.8443 154.267 40.4288 153.427 40.7941C152.587 41.1594 151.692 41.3421 150.742 41.3421C149.743 41.3421 148.824 41.1838 147.984 40.8671C147.156 40.5384 146.437 40.0818 145.829 39.4973C145.232 38.9006 144.763 38.1883 144.423 37.3603C144.081 36.5323 143.911 35.6129 143.911 34.6023C143.911 33.5673 144.081 32.6297 144.423 31.7895C144.763 30.9371 145.232 30.2126 145.829 29.6159C146.437 29.0193 147.156 28.5626 147.984 28.2461C148.824 27.9173 149.743 27.7529 150.742 27.7529C151.619 27.7529 152.429 27.9112 153.171 28.2278C153.926 28.5322 154.626 29.0558 155.272 29.7986L153.482 31.1136Z" fill="#171717"/>
<path d="M160.762 28.0811H163.063V33.2317H169.108V28.0811H171.41V41.0127H169.108V35.3139H163.063V41.0127H160.762V28.0811Z" fill="#171717"/>
<path d="M177.952 28.0811H186.518V30.1633H180.254V33.3414H186.19V35.4236H180.254V38.9304H186.847V41.0127H177.952V28.0811Z" fill="#171717"/>
<path fill-rule="evenodd" clip-rule="evenodd" d="M40.819 34.5487C40.819 44.7928 32.5145 53.0973 22.2703 53.0973C12.0262 53.0973 3.72168 44.7928 3.72168 34.5487C3.72168 24.3045 12.0262 16 22.2703 16C32.5145 16 40.819 24.3045 40.819 34.5487ZM17.0142 41.9297H13.4145C12.6581 41.9297 12.2844 41.9297 12.0565 41.7839C11.8105 41.6244 11.6601 41.3601 11.6419 41.0685C11.6282 40.7996 11.815 40.4716 12.1887 39.8154L21.077 24.1486C21.4552 23.4833 21.6466 23.1507 21.8881 23.0276C22.1478 22.8955 22.4577 22.8955 22.7174 23.0276C22.9589 23.1507 23.1503 23.4833 23.5285 24.1486L25.3557 27.3382L25.3651 27.3545C25.7735 28.0683 25.9807 28.4302 26.0711 28.81C26.1714 29.2247 26.1714 29.6621 26.0711 30.0768C25.98 30.4596 25.7749 30.8241 25.3603 31.5487L20.6915 39.8017L20.6794 39.8229C20.2682 40.5425 20.0598 40.9072 19.771 41.1824C19.4566 41.4832 19.0784 41.7019 18.6638 41.8249C18.2856 41.9297 17.8618 41.9297 17.0142 41.9297ZM26.1048 41.9301H31.263C32.024 41.9301 32.4067 41.9301 32.6346 41.7798C32.8806 41.6203 33.0356 41.3514 33.0493 41.0598C33.0625 40.7998 32.8797 40.4844 32.5215 39.8664C32.5093 39.8453 32.4968 39.8239 32.4842 39.8021L29.9006 35.3822L29.8712 35.3325C29.5081 34.7184 29.3247 34.4084 29.0895 34.2886C28.8297 34.1564 28.5245 34.1564 28.2647 34.2886C28.0278 34.4116 27.8364 34.7351 27.4582 35.3867L24.8837 39.8067L24.8748 39.8219C24.498 40.4725 24.3096 40.7976 24.3232 41.0644C24.3414 41.356 24.4918 41.6248 24.7379 41.7843C24.9611 41.9301 25.3439 41.9301 26.1048 41.9301Z" fill="#171717"/>
</g>
<defs>
<clipPath id="clip0_1341_6813">
<rect width="183.136" height="37.0973" fill="white" transform="translate(3.72168 16)"/>
</clipPath>
</defs>
</svg>
