<svg width="190" height="70" viewBox="0 0 190 70" fill="none" xmlns="http://www.w3.org/2000/svg">
<g clip-path="url(#clip0_1341_6793)">
<path d="M40.6202 30.5908L39.8389 33.735C40.7691 33.9582 43.4762 34.8609 43.9134 33.0841C44.3785 31.2236 41.5133 30.8606 40.6202 30.5908Z" fill="#171717"/>
<path d="M39.4388 35.3252L38.5737 38.795C39.6435 39.0648 42.9459 40.1256 43.4296 38.1627C43.9134 36.1999 40.5086 35.595 39.4388 35.3252Z" fill="#171717"/>
<path d="M44.174 21.2127C41.4159 20.5245 38.5157 20.6696 35.8401 21.6297C33.1645 22.5898 30.8337 24.3219 29.1424 26.6067C27.4511 28.8914 26.4753 31.6263 26.3384 34.4657C26.2016 37.305 26.9098 40.1213 28.3735 42.5582C29.8372 44.995 31.9906 46.9431 34.5614 48.1561C37.1323 49.369 40.005 49.7922 42.8165 49.3725C45.628 48.9527 48.2519 47.7087 50.3563 45.7977C52.4608 43.8867 53.9513 41.3945 54.6393 38.6364V38.6364C55.5594 34.9382 54.974 31.0264 53.0117 27.7595C51.0495 24.4926 47.8709 22.1378 44.174 21.2127V21.2127ZM47.0298 33.1107C46.9961 33.664 46.7811 34.191 46.4178 34.6097C46.0546 35.0284 45.5634 35.3158 45.0204 35.4273C45.376 35.5717 45.6981 35.7878 45.9663 36.0623C46.2346 36.3368 46.4433 36.6637 46.5795 37.0225C46.7157 37.3814 46.7764 37.7643 46.7578 38.1476C46.7393 38.531 46.6419 38.9065 46.4717 39.2505C45.6158 41.6878 43.5972 41.8925 40.8901 41.3808L40.2297 43.9949L38.6575 43.6043L39.2994 41.0179C38.8901 40.9156 38.4714 40.8131 38.0435 40.6922L37.4017 43.2877L35.8202 42.897L36.4807 40.2739L35.3551 39.9854L33.2992 39.4735L34.0806 37.6689C34.0806 37.6689 35.2435 37.9759 35.2249 37.9573C35.2976 37.9803 35.3741 37.9886 35.45 37.9818C35.5259 37.9751 35.5998 37.9537 35.6672 37.9183C35.7347 37.8828 35.7945 37.8339 35.8431 37.7752C35.8917 37.7165 35.9282 37.6491 35.9504 37.5762L36.983 33.4455H37.1505H36.983L37.7179 30.4876C37.7322 30.378 37.7244 30.2666 37.695 30.1601C37.6656 30.0536 37.6151 29.9543 37.5466 29.8676C37.4781 29.7809 37.393 29.7087 37.2962 29.6554C37.1994 29.6022 37.0929 29.5688 36.983 29.5573C36.983 29.5573 35.8388 29.2689 35.8388 29.2689L36.2575 27.5851L38.4343 28.1247L39.4389 28.3663L40.0901 25.7709L41.6622 26.1711L41.0297 28.7106C41.4483 28.8037 41.8762 28.8965 42.2948 29.0082L42.918 26.4781L44.4995 26.8783L43.8483 29.4642C45.8762 30.1712 47.3182 31.1944 47.0298 33.1107Z" fill="#171717"/>
<path d="M68.444 29.4822C69.4852 29.4562 70.5188 29.6662 71.4673 30.0963C72.2862 30.4917 73.0074 31.0634 73.579 31.7706C74.1494 32.5066 74.5697 33.3474 74.8162 34.2452C75.0861 35.2429 75.2207 36.2723 75.2163 37.3058C75.2269 38.9336 74.9106 40.5465 74.286 42.0497C73.6966 43.4973 72.8379 44.8203 71.7557 45.9479C70.6753 47.0567 69.3893 47.9442 67.9696 48.5615C66.4773 49.2004 64.867 49.5174 63.2439 49.4918H62.0996C61.4768 49.4706 60.8557 49.415 60.2391 49.3246C59.4842 49.2211 58.7358 49.0749 57.9973 48.8872C57.2264 48.7017 56.4779 48.4336 55.7646 48.0873L62.0532 21.64L67.6905 20.7656L65.4393 30.1522C65.9061 29.9393 66.3919 29.7711 66.8905 29.6498C67.4017 29.5233 67.9267 29.4606 68.4533 29.4636L68.444 29.4822ZM63.7184 45.0544C64.5582 45.0529 65.3839 44.8385 66.1184 44.4312C66.8732 44.0185 67.535 43.4551 68.0626 42.7756C68.62 42.0709 69.057 41.2788 69.3557 40.4313C69.6709 39.5572 69.8314 38.6347 69.8301 37.7055C69.8803 36.7581 69.6781 35.8143 69.244 34.9706C69.0106 34.6279 68.6878 34.3557 68.3106 34.1835C67.9334 34.0113 67.5162 33.9459 67.1044 33.994C66.6564 34.0107 66.211 34.0698 65.7742 34.1707C65.2265 34.2987 64.7206 34.5646 64.3044 34.9429L61.9043 44.9059L62.2857 44.9804L62.6206 45.0363H63.0671L63.7184 45.0544ZM81.0582 49.0176H75.6442L80.1931 29.8824H85.6165L81.0582 49.0176ZM83.6816 27.5568C82.9474 27.5628 82.2316 27.3273 81.6443 26.8868C81.3307 26.6483 81.0815 26.3354 80.9191 25.9765C80.7567 25.6176 80.6862 25.2239 80.714 24.8309C80.7116 24.3338 80.8164 23.8422 81.0211 23.3892C81.2167 22.9526 81.4946 22.5578 81.8397 22.2264C82.1841 21.898 82.5842 21.6332 83.0211 21.4447C83.476 21.2478 83.9674 21.1494 84.463 21.1563C85.1941 21.1515 85.9065 21.387 86.491 21.8262C86.8033 22.0658 87.0516 22.3788 87.2139 22.7374C87.3762 23.0961 87.4474 23.4893 87.4212 23.8821C87.4217 24.379 87.317 24.8702 87.1142 25.3238C86.9186 25.7604 86.6406 26.1552 86.2955 26.4866C85.9511 26.815 85.5512 27.0799 85.1142 27.2683C84.6618 27.4627 84.1739 27.5609 83.6816 27.5568V27.5568ZM90.3608 25.1194L95.9982 24.245L94.6121 29.8824H100.659L99.561 34.3197H93.5609L91.9609 41.0173C91.8197 41.5273 91.7354 42.0517 91.7097 42.5803C91.6765 43.0068 91.7368 43.4354 91.8864 43.8362C92.0406 44.1938 92.3179 44.4841 92.6679 44.6547C93.178 44.8744 93.7319 44.9732 94.2865 44.9432C94.8551 44.945 95.4223 44.8887 95.9795 44.7756C96.5411 44.6651 97.0944 44.5159 97.6354 44.329L98.0354 48.4779C97.262 48.7538 96.4731 48.9839 95.6726 49.1666C94.6787 49.3747 93.6646 49.4715 92.6493 49.455C91.3122 49.5214 89.9788 49.2659 88.7607 48.7105C87.9023 48.2661 87.2153 47.5497 86.8072 46.6733C86.4052 45.7383 86.2298 44.7215 86.2955 43.7058C86.3512 42.5168 86.5226 41.336 86.8072 40.1801L90.3701 25.1194H90.3608ZM100.417 41.3802C100.409 39.7949 100.68 38.2206 101.217 36.7289C101.727 35.317 102.507 34.0184 103.515 32.9057C104.529 31.8047 105.761 30.9271 107.133 30.3289C108.631 29.6858 110.248 29.3687 111.878 29.3986C112.863 29.3858 113.847 29.4918 114.808 29.7148C115.617 29.9015 116.403 30.1759 117.152 30.5333L115.292 34.7476C114.789 34.5523 114.287 34.3754 113.775 34.2266C113.171 34.0535 112.544 33.9718 111.915 33.9845C111.107 33.9526 110.303 34.1034 109.562 34.4256C108.822 34.7477 108.163 35.2328 107.636 35.845C106.523 37.2609 105.961 39.0328 106.054 40.8315C106.006 41.8914 106.286 42.9404 106.854 43.8362C107.215 44.2532 107.672 44.5752 108.186 44.7746C108.7 44.9741 109.256 45.0449 109.803 44.9804C110.488 44.9812 111.171 44.9095 111.84 44.7665C112.438 44.6349 113.023 44.4509 113.589 44.2173L113.989 48.5429C113.254 48.8277 112.503 49.067 111.738 49.2592C110.771 49.4788 109.781 49.582 108.789 49.5663C107.485 49.5991 106.186 49.3782 104.966 48.9154C103.989 48.519 103.11 47.9157 102.389 47.1475C101.704 46.403 101.199 45.5124 100.91 44.543C100.606 43.5289 100.453 42.476 100.454 41.4175L100.417 41.3802ZM124.334 49.529C123.19 49.5542 122.052 49.3552 120.985 48.9431C120.088 48.5852 119.285 48.0251 118.641 47.306C118.011 46.5782 117.536 45.7298 117.245 44.8128C116.918 43.7845 116.758 42.7104 116.771 41.6314C116.773 40.1488 117.012 38.6761 117.478 37.2686C117.934 35.845 118.643 34.515 119.571 33.3427C120.5 32.174 121.651 31.2003 122.957 30.4774C124.362 29.722 125.938 29.3409 127.534 29.3705C128.671 29.3478 129.803 29.5467 130.864 29.9564C131.77 30.3069 132.58 30.8683 133.227 31.5939C133.86 32.3204 134.338 33.169 134.632 34.0872C134.959 35.1155 135.119 36.1895 135.106 37.2686C135.102 38.7503 134.866 40.2222 134.408 41.6314C133.968 43.0534 133.278 44.3857 132.371 45.5664C131.465 46.7416 130.321 47.7118 129.013 48.413C127.583 49.1754 125.982 49.5594 124.362 49.529H124.334ZM127.031 33.9568C126.271 33.9452 125.528 34.1872 124.92 34.645C124.303 35.1238 123.785 35.718 123.394 36.3942C122.973 37.1135 122.659 37.8908 122.464 38.7012C122.267 39.4799 122.164 40.2795 122.157 41.0827C122.107 42.0649 122.306 43.0434 122.734 43.9289C122.956 44.2777 123.272 44.5573 123.645 44.7365C124.018 44.9156 124.434 44.9874 124.845 44.9432C125.606 44.9548 126.349 44.7123 126.957 44.2546C127.576 43.778 128.095 43.1837 128.483 42.5058C128.903 41.7861 129.217 41.0089 129.413 40.1988C129.61 39.42 129.713 38.6205 129.72 37.8173C129.764 36.8524 129.562 35.8921 129.134 35.0265C128.915 34.676 128.601 34.3944 128.229 34.2134C127.858 34.0325 127.443 33.9594 127.031 34.0031V33.9568ZM140.985 49.0176H135.599L140.148 29.8824H145.571L140.985 49.0176ZM143.599 27.5568C142.868 27.5615 142.156 27.326 141.571 26.8868C141.258 26.6483 141.008 26.3354 140.846 25.9765C140.684 25.6176 140.613 25.2239 140.641 24.8309C140.639 24.3338 140.743 23.8422 140.948 23.3892C141.144 22.9526 141.422 22.5578 141.767 22.2264C142.111 21.898 142.511 21.6332 142.948 21.4447C143.4 21.2477 143.888 21.1493 144.381 21.1563C145.117 21.1516 145.836 21.3868 146.427 21.8262C146.74 22.0658 146.988 22.3788 147.15 22.7374C147.313 23.0961 147.384 23.4893 147.357 23.8821C147.36 24.3792 147.255 24.8708 147.051 25.3238C146.853 25.7593 146.575 26.1537 146.232 26.4866C145.887 26.815 145.487 27.0799 145.05 27.2683C144.595 27.4637 144.104 27.5619 143.609 27.5568H143.599ZM149.451 30.7568L150.809 30.338C151.367 30.1612 151.925 30.0219 152.483 29.901C153.041 29.7801 153.795 29.6591 154.558 29.5753C155.423 29.4849 156.292 29.4413 157.162 29.445C160.003 29.445 161.959 30.2699 163.032 31.9196C164.111 33.5661 164.307 35.8265 163.6 38.6916L161.125 49.0176H155.646L158.046 38.9056C158.195 38.273 158.307 37.659 158.4 37.0451C158.489 36.528 158.489 35.9996 158.4 35.4825C158.312 35.052 158.075 34.6661 157.73 34.3938C157.248 34.0794 156.676 33.9326 156.102 33.9754C155.383 33.9756 154.666 34.0501 153.962 34.1984L150.427 48.9989H145.013L149.413 30.7382L149.451 30.7568Z" fill="#171717"/>
</g>
<defs>
<clipPath id="clip0_1341_6793">
<rect width="137.678" height="28.7449" fill="white" transform="translate(26.3223 20.7852)"/>
</clipPath>
</defs>
</svg>
