<svg width="145" height="42" viewBox="0 0 145 42" fill="none" xmlns="http://www.w3.org/2000/svg">
<path d="M111 13.7326H107.046L104.758 23.5803L104.438 24.9317C104.217 24.9931 103.996 25.0544 103.775 25.0956C103.374 25.1774 102.953 25.2183 102.511 25.2183C102.009 25.2183 101.608 25.1366 101.307 24.9931C101.026 24.8498 100.805 24.6453 100.685 24.3584C100.564 24.0922 100.524 23.7647 100.544 23.3962C100.564 23.0278 100.645 22.6181 100.745 22.209L101.949 17.0903L102.732 13.6918H98.6977L96.8716 21.5534C96.6507 22.495 96.5304 23.3961 96.4902 24.2561C96.45 25.1158 96.5905 25.853 96.8716 26.5286C97.1526 27.1838 97.6541 27.6955 98.3366 28.0844C99.0189 28.4735 100.002 28.6574 101.247 28.6574C102.11 28.6574 102.872 28.576 103.515 28.4324C103.535 28.4324 103.575 28.4121 103.595 28.4121C103.414 29.2308 103.053 29.8858 102.491 30.398C101.909 30.9099 101.066 31.176 99.942 31.176C99.4603 31.176 99.0189 31.1555 98.6175 31.0944L97.8348 34.4316C98.3568 34.493 98.9388 34.534 99.5808 34.534C100.785 34.534 101.828 34.3907 102.732 34.1243C103.635 33.8376 104.398 33.4283 105.06 32.8549C105.702 32.2816 106.244 31.565 106.685 30.7258C107.126 29.866 107.468 28.8624 107.729 27.675L110.458 15.9642L111 13.7326ZM94.4434 22.147C94.2025 23.1708 94.1222 24.2148 94.2225 25.2386C94.3229 26.2827 94.7243 27.8591 95.1057 28.6575H91.2926C90.8311 27.8594 90.8513 27.4703 90.751 27.2247C90.2491 27.6342 89.7075 27.9822 89.1055 28.2485C88.5034 28.5147 87.841 28.658 87.0784 28.658C86.1953 28.658 85.4328 28.4941 84.8107 28.1871C84.1886 27.8802 83.6668 27.4502 83.2653 26.9177C82.8637 26.3852 82.5831 25.7709 82.4021 25.0544C82.2215 24.3378 82.1413 23.5803 82.1413 22.7616C82.1413 21.5123 82.3621 20.3456 82.7838 19.2401C83.225 18.1345 83.8271 17.172 84.59 16.3532C85.3526 15.5343 87.219 13.7123 90.2693 13.7123H96.3904L94.4434 22.147V22.147ZM91.6539 17.1311C89.8077 17.1311 89.4663 17.1311 88.704 17.5203C88.1622 17.8068 87.7204 18.2368 87.3392 18.7281C86.958 19.2193 86.6368 19.7926 86.4161 20.4479C86.1954 21.1031 86.0749 21.7786 86.0749 22.4748C86.0749 23.3347 86.2156 24.0306 86.4964 24.5425C86.7771 25.0544 87.2991 25.3 88.0617 25.3C88.4633 25.3 88.8442 25.2183 89.1657 25.0544C89.4865 24.8905 89.8477 24.6247 90.2091 24.2356C90.2494 23.7853 90.3095 23.3142 90.3897 22.8233C90.4698 22.3316 90.5703 21.8608 90.6507 21.4512L91.6539 17.1311V17.1311ZM81.0577 19.6493C81.0577 20.9801 80.8368 22.188 80.4153 23.2936C79.994 24.3991 79.3919 25.3409 78.6292 26.1395C77.8664 26.9381 76.9636 27.5522 75.8999 28.0028C74.8363 28.4528 73.6924 28.6782 72.4481 28.6782C71.846 28.6782 71.2439 28.6167 70.6217 28.5144L69.4178 33.4485H65.464L70.0597 13.7527H75.3378C76.3416 13.7527 77.2042 13.9167 77.9066 14.2234C78.629 14.5304 79.211 14.9606 79.6927 15.4931C80.1543 16.0254 80.4953 16.66 80.716 17.3765C80.9574 18.0728 81.0577 18.8304 81.0577 19.6493V19.6493ZM71.3643 25.2386C71.6651 25.3203 72.0467 25.3409 72.4882 25.3409C73.1906 25.3409 73.8129 25.218 74.3946 24.9517C74.9564 24.6856 75.4583 24.317 75.8596 23.8464C76.2612 23.3755 76.562 22.8022 76.8029 22.147C77.0236 21.4916 77.1441 20.7547 77.1441 19.9564C77.1441 19.1781 76.9835 18.5026 76.6424 17.9701C76.3011 17.4176 75.7194 17.1309 74.8766 17.1309H73.311L71.3643 25.2386V25.2386ZM63.056 25.2386C62.5541 25.2386 62.1531 25.1567 61.8519 25.0134C61.5708 24.8702 61.35 24.6655 61.2297 24.3786C61.1092 24.1125 61.0691 23.785 61.0893 23.4164C61.1092 23.0478 61.1894 22.6383 61.2898 22.2289L62.4938 17.1106H66.9892L67.8121 13.712H63.2965L64.34 9.41241L60.1254 10.0877L57.4563 21.594C57.2355 22.5356 57.1151 23.4369 57.075 24.2964C57.0347 25.1563 57.1753 25.8938 57.4563 26.5691C57.7372 27.2242 58.239 27.736 58.9213 28.125C59.6036 28.5141 60.5871 28.6982 61.8313 28.6982C62.6944 28.6982 63.4568 28.6164 64.0992 28.473C64.1594 28.4522 64.2597 28.4319 64.3197 28.4116L65.1427 24.9105C64.8616 25.0128 64.5807 25.0745 64.3197 25.115C63.9189 25.1975 63.4973 25.2386 63.056 25.2386V25.2386ZM53.0017 13.7326L49.5096 28.678H53.4631L56.935 13.7326H53.0017ZM57.3565 12.0126L57.9585 9.41241H54.005L53.4029 12.0126H57.3565ZM44.2516 13.7527C45.0945 13.7527 45.837 13.9167 46.4591 14.2234C47.0813 14.5304 47.583 14.9399 48.0044 15.4724C48.4058 16.005 48.7068 16.6192 48.9074 17.3153C49.108 18.0111 49.2084 18.7689 49.2084 19.5878C49.2084 20.8367 48.9876 22.0037 48.526 23.1297C48.0644 24.2353 47.4623 25.218 46.6798 26.0367C45.8972 26.8556 44.9739 27.5111 43.9104 27.9819C42.8467 28.4527 41.7027 28.6983 40.4586 28.6983C40.298 28.6983 40.0171 28.6983 39.6158 28.678C39.2144 28.678 38.7529 28.6369 38.2511 28.555C37.7293 28.4733 37.1874 28.3708 36.6255 28.2277C36.0647 28.0886 35.5199 27.8896 35 27.6339L39.5956 7.93834L43.7098 7.28287L42.0841 14.2642C42.4453 14.1006 42.7664 13.9776 43.1277 13.8959C43.4688 13.7938 43.8502 13.7527 44.2516 13.7527V13.7527ZM40.7997 25.3409C41.4218 25.3409 42.0039 25.1975 42.5457 24.8702C43.0948 24.5596 43.5789 24.1423 43.9706 23.6417C44.372 23.1297 44.693 22.5359 44.9139 21.9011C45.1346 21.2459 45.255 20.5706 45.255 19.8745C45.255 19.0145 45.1145 18.3392 44.8335 17.8476C44.5526 17.3562 43.9706 17.1311 43.208 17.1311C42.9671 17.1311 42.7062 17.1517 42.3048 17.254C41.9034 17.3357 41.5623 17.5407 41.2413 17.8271L39.5153 25.2591C40.0371 25.3409 40.1976 25.3613 40.3382 25.3613C40.4386 25.3409 40.5991 25.3409 40.7997 25.3409V25.3409Z" fill="#BDBDBD"/>
</svg>
