<svg width="145" height="42" viewBox="0 0 145 42" fill="none" xmlns="http://www.w3.org/2000/svg">
<path d="M56.1084 21.9336V11.8386H57.0666C57.8689 11.8386 58.5152 12.4849 58.5152 13.2649V17.7664C60.0751 16.3847 61.3899 15.8276 63.1504 15.8053C66.5154 15.7385 69.4347 18.2344 69.7244 21.5994C70.0587 25.6106 67.1394 28.6191 63.3287 28.6191C59.1391 28.5968 56.1084 26.0118 56.1084 21.9336ZM58.4706 22.7359C58.7157 24.8307 60.6991 26.5466 62.8161 26.5912C65.5572 26.6357 67.4291 24.853 67.4291 22.2011C67.4291 19.5492 65.5794 17.811 62.9276 17.811C60.0751 17.811 58.1363 19.8612 58.4706 22.7359Z" fill="#BDBDBD"/>
<path d="M73.6904 16.0281V17.8332C75.2058 16.1619 76.0972 15.7162 77.8577 15.7162C78.3702 15.7162 78.8828 15.7607 79.3953 15.8499V18.2343C78.8605 18.0783 78.3034 18.0115 77.7463 18.0115C76.476 18.0115 75.4063 18.4349 74.6041 19.2149C73.9133 19.9057 73.7127 20.4405 73.7127 21.5325V28.1957H71.2168V16.0281H73.6904Z" fill="#BDBDBD"/>
<path d="M79.9753 20.0618C80.109 18.8807 80.3319 18.2344 80.8444 17.6327C81.8695 16.3848 83.6969 15.7385 86.3042 15.7385C88.3767 15.7385 89.8698 16.0505 90.9171 16.7413C91.7863 17.2984 92.1428 18.1453 92.1428 19.6161V25.009C92.1428 26.1901 92.4548 26.6135 93.3016 26.5912C93.4799 26.5912 93.6805 26.5689 93.8587 26.5466V28.1734C93.4353 28.3071 92.9896 28.374 92.5662 28.374C91.0063 28.374 90.2932 27.906 89.8029 26.5466C88.2653 27.9506 86.683 28.5523 84.41 28.5523C81.3792 28.5523 79.5073 27.1706 79.5073 24.9198C79.485 23.6496 80.2427 22.4685 81.4238 21.956C82.3375 21.5548 82.8946 21.4434 85.5242 21.176C87.775 20.9531 88.1538 20.9086 88.8001 20.708C89.4909 20.4852 89.8029 20.1063 89.8029 19.5046C89.8029 18.1898 88.7109 17.6104 86.4156 17.6104C84.254 17.6104 83.1175 18.0338 82.6718 19.1481C82.4489 19.7052 81.9141 20.084 81.3124 20.084L79.9753 20.0618ZM89.8029 22.1342C88.2207 22.6022 86.6162 22.8919 84.9671 23.0256C82.7386 23.2485 82.0478 23.6719 82.0478 24.7638C82.0478 25.9895 83.0729 26.6358 85.0785 26.6358C86.7276 26.6358 87.9978 26.2124 88.8892 25.4101C89.6023 24.7416 89.7806 24.2736 89.7806 23.1148L89.8029 22.1342Z" fill="#BDBDBD"/>
<path d="M99.8543 28.1734H99.2081C98.651 28.1734 98.1384 27.8614 97.8933 27.3489L92.5449 16.0282H94.038C94.9071 16.0282 95.6871 16.5184 96.0436 17.3207L99.6092 25.4546L103.308 17.2984C103.665 16.5184 104.445 16.0282 105.314 16.0282H106.674L101.191 27.3711C100.924 27.8837 100.411 28.1957 99.8543 28.1734Z" fill="#BDBDBD"/>
<path d="M108.344 22.825C108.589 25.1649 110.439 26.6134 113.158 26.6134C114.718 26.6134 115.877 26.1455 116.59 25.2318C117.013 24.6969 117.659 24.4072 118.328 24.4072H119.776C118.506 27.1483 116.278 28.5076 112.935 28.5076C108.768 28.5076 105.938 25.9672 105.938 22.1788C105.938 18.3903 108.812 15.7162 112.98 15.7162C115.988 15.7162 118.417 17.0755 119.398 19.3486C119.821 20.396 119.999 21.3096 119.999 22.825H108.344V22.825ZM117.481 20.9308C116.924 18.7915 115.253 17.5881 112.957 17.5881C110.662 17.5881 108.991 18.7915 108.411 20.9308H117.481Z" fill="#BDBDBD"/>
<path d="M48.437 13.042L49.1279 11.3483C49.1279 11.3483 48.2587 10.4124 47.1891 9.34269C46.1194 8.27302 43.8686 8.897 43.8686 8.897L41.3059 5.99997H36.8043H32.2805L29.7178 8.91928C29.7178 8.91928 27.467 8.29531 26.3973 9.36498C25.3277 10.4347 24.4586 11.3706 24.4586 11.3706L25.1494 13.0643L24.2803 15.5602C24.2803 15.5602 26.8653 25.3209 27.155 26.5243C27.7567 28.8642 28.1578 29.7779 29.8515 30.9813C31.5451 32.1846 34.5981 34.2348 35.1107 34.5468C35.601 34.8588 36.2472 35.3937 36.8043 35.3937C37.3615 35.3937 37.9854 34.8588 38.498 34.5468C38.9883 34.2348 42.0636 32.1624 43.7572 30.9813C45.4509 29.8002 45.852 28.8865 46.4537 26.5243C46.7657 25.3209 49.3284 15.5602 49.3284 15.5602L48.437 13.042Z" fill="#BDBDBD"/>
<path d="M43.1568 10.7689C43.1568 10.7689 46.4549 14.7579 46.4549 15.627C46.4549 16.4961 46.0315 16.6967 45.6081 17.1424C45.1847 17.5881 43.3573 19.5269 43.1345 19.772C42.8893 20.0171 42.4214 20.396 42.6888 21.0868C42.9785 21.7554 43.4019 22.6245 42.9339 23.5159C42.4659 24.385 41.6637 24.9867 41.1511 24.8752C40.6386 24.7861 39.4129 24.1398 38.9672 23.8501C38.5215 23.5604 37.1176 22.4016 37.1176 21.9559C37.1176 21.5102 38.5884 20.708 38.8558 20.5297C39.1232 20.3514 40.3489 19.6383 40.3712 19.3709C40.3934 19.1035 40.3934 19.0143 40.0146 18.3235C39.658 17.6327 38.9895 16.719 39.1009 16.1173C39.2123 15.5156 40.2597 15.2036 41.0174 14.9139C41.7751 14.6242 43.2236 14.0894 43.4019 14.0002C43.5802 13.9111 43.5356 13.8443 42.9785 13.7774C42.4214 13.7328 40.8837 13.51 40.1706 13.7105C39.4575 13.9111 38.2764 14.2008 38.165 14.3568C38.0758 14.5128 37.9867 14.5128 38.0758 15.0699C38.165 15.6048 38.6998 18.2344 38.7444 18.7023C38.7889 19.1703 38.9004 19.4823 38.3878 19.5937C37.8975 19.7052 37.0507 19.9057 36.761 19.9057C36.4713 19.9057 35.6245 19.7052 35.1342 19.5937C34.644 19.4823 34.7331 19.1703 34.7777 18.7023C34.8222 18.2344 35.3348 15.627 35.4462 15.0699C35.5353 14.5351 35.4685 14.5128 35.3571 14.3568C35.2679 14.2008 34.0645 13.9111 33.3514 13.7105C32.6383 13.51 31.1007 13.7105 30.5435 13.7774C29.9864 13.822 29.9419 13.9111 30.1201 14.0002C30.2984 14.0894 31.7469 14.6242 32.5046 14.9139C33.2623 15.2036 34.3097 15.5156 34.4211 16.1173C34.5325 16.719 33.8863 17.6327 33.5074 18.3235C33.1509 19.0143 33.1286 19.0812 33.1509 19.3709C33.1732 19.6383 34.3988 20.3514 34.6662 20.5297C34.9337 20.708 36.4045 21.5102 36.4045 21.9559C36.4045 22.4016 35.0005 23.5604 34.5548 23.8501C34.1091 24.1398 32.9057 24.7638 32.3709 24.8752C31.8583 24.9644 31.0561 24.385 30.5881 23.5159C30.1201 22.6468 30.5435 21.7776 30.8332 21.0868C31.1229 20.4183 30.6327 20.0394 30.3876 19.772C30.2093 19.5046 28.4042 17.5658 27.9808 17.1424C27.5574 16.6967 27.1562 16.4739 27.1562 15.627C27.1562 14.7802 30.4544 10.7689 30.4544 10.7689C30.4544 10.7689 33.24 11.3038 33.6189 11.3038C33.9977 11.3038 34.7999 10.9918 35.5576 10.7467C36.3153 10.5015 36.8056 10.5015 36.8056 10.5015C36.8056 10.5015 37.2958 10.5015 38.0535 10.7467C38.8112 10.9918 39.6135 11.3038 39.9923 11.3038C40.3712 11.3038 43.1568 10.7689 43.1568 10.7689ZM40.6831 26.034C40.8837 26.1678 40.7723 26.4129 40.5717 26.5243C40.3934 26.658 37.8753 28.5968 37.6524 28.8197C37.4073 29.0425 37.0507 29.3768 36.8056 29.3768C36.5604 29.3768 36.2039 29.0202 35.9588 28.8197C35.7136 28.5968 33.2177 26.658 33.0394 26.5243C32.8612 26.3906 32.7275 26.1455 32.928 26.034C33.1286 25.9003 33.7748 25.5884 34.644 25.1204C35.5353 24.6524 36.6273 24.2735 36.8056 24.2735C36.9839 24.2735 38.0758 24.6524 38.9672 25.1204C39.8363 25.5884 40.4603 25.9226 40.6831 26.034Z" fill="#FFFFFA"/>
<path d="M43.8688 8.91928L41.306 5.99997H36.8045H32.2807L29.7179 8.91928C29.7179 8.91928 27.4671 8.29531 26.3975 9.36498C26.3975 9.36498 29.4059 9.09756 30.431 10.7689C30.431 10.7689 33.2166 11.3038 33.5955 11.3038C33.9743 11.3038 34.7766 10.9918 35.5342 10.7466C36.2919 10.5015 36.7822 10.5015 36.7822 10.5015C36.7822 10.5015 37.2725 10.5015 38.0301 10.7466C38.7878 10.9918 39.5901 11.3038 39.9689 11.3038C40.3478 11.3038 43.1334 10.7689 43.1334 10.7689C44.1585 9.09756 47.1669 9.36498 47.1669 9.36498C46.1195 8.29531 43.8688 8.91928 43.8688 8.91928Z" fill="#BDBDBD"/>
</svg>
