<svg width="190" height="70" viewBox="0 0 190 70" fill="none" xmlns="http://www.w3.org/2000/svg">
<path d="M29.5232 41.0145C29.5232 41.3671 29.228 41.6541 28.8754 41.6541H16.3942C16.7058 44.7375 19.0266 47.5503 22.2904 47.5503C24.5209 47.5503 26.1774 46.6974 27.4239 44.9179C27.6043 44.6719 27.8749 44.5161 28.2194 44.6637C28.408 44.7457 28.5392 44.9179 28.572 45.1147C28.6048 45.3197 28.5474 45.4345 28.49 45.5493C27.2353 47.7389 24.7341 48.8132 22.2822 48.8132C18.0835 48.8132 15.0903 45.0573 15.0903 41.0391C15.0903 37.0208 18.0835 33.265 22.2822 33.265C26.4808 33.2568 29.515 37.0044 29.5232 41.0145V41.0145ZM28.1866 40.4076C27.9159 37.3242 25.5542 34.5115 22.2904 34.5115C19.0266 34.5115 16.7058 37.3242 16.3942 40.4076H28.1866ZM44.6696 33.5684C45.0304 33.5684 45.2928 33.88 45.2928 34.1916C45.2928 34.5525 45.0222 34.8149 44.6696 34.8149H41.3238V47.9439C41.3238 48.2555 41.0532 48.5671 40.7005 48.5671C40.3397 48.5671 40.0773 48.2555 40.0773 47.9439V34.8149H36.8627C36.5019 34.8149 36.2395 34.5443 36.2395 34.1916C36.2395 33.88 36.5101 33.5684 36.8627 33.5684H40.0773V28.7629C40.0773 28.4595 40.2823 28.1807 40.5775 28.1315C40.9958 28.0659 41.3238 28.3529 41.3238 28.7465V33.5684H44.6696ZM65.0807 39.9156V47.8701C65.0807 48.2309 64.769 48.4933 64.4574 48.4933C64.0966 48.4933 63.8342 48.2227 63.8342 47.8701V39.9156C63.8342 37.234 62.3171 34.5525 59.3239 34.5525C55.4861 34.5525 53.8296 37.9065 54.051 41.3425C54.051 41.4327 54.092 41.8345 54.092 41.8755V47.8455C54.092 48.1489 53.887 48.4277 53.5917 48.4769C53.1735 48.5425 52.8455 48.2555 52.8455 47.8619V21.7351C52.8455 21.4234 53.1161 21.1118 53.4687 21.1118C53.8296 21.1118 54.092 21.4234 54.092 21.7351V36.5206C55.1662 34.6017 57.0852 33.306 59.3157 33.306C62.9813 33.306 65.0807 36.5206 65.0807 39.9156V39.9156ZM87.4599 41.0145C87.4599 41.3671 87.1646 41.6541 86.812 41.6541H74.3226C74.6343 44.7375 76.955 47.5503 80.2188 47.5503C82.4493 47.5503 84.1058 46.6974 85.3523 44.9179C85.5327 44.6719 85.8034 44.5161 86.1478 44.6637C86.3364 44.7457 86.4676 44.9179 86.5004 45.1147C86.5332 45.3197 86.4758 45.4345 86.4184 45.5493C85.1637 47.7389 82.6626 48.8132 80.2106 48.8132C76.0119 48.8132 73.0188 45.0573 73.0188 41.0391C73.0188 37.0208 76.0119 33.265 80.2106 33.265C84.4175 33.2568 87.4517 37.0044 87.4599 41.0145V41.0145ZM86.115 40.4076C85.8444 37.3242 83.4826 34.5115 80.2188 34.5115C76.955 34.5115 74.6343 37.3242 74.3226 40.4076H86.115ZM102.778 34.1506C102.778 34.5525 102.557 34.7739 102.196 34.8231C98.5305 35.3561 96.8822 38.3493 96.8822 41.8345V47.8045C96.8822 48.1079 96.6772 48.3867 96.382 48.4359C95.9638 48.5015 95.6358 48.2145 95.6358 47.8209V34.2162C95.6358 33.9128 95.8408 33.634 96.136 33.5848C96.5542 33.5192 96.8822 33.8062 96.8822 34.1998V36.9716C97.9073 35.2331 99.9656 33.5766 102.106 33.5766C102.418 33.5684 102.778 33.798 102.778 34.1506V34.1506ZM123.28 41.0145C123.28 41.3671 122.984 41.6541 122.632 41.6541H110.151C110.462 44.7375 112.783 47.5503 116.047 47.5503C118.277 47.5503 119.934 46.6974 121.18 44.9179C121.361 44.6719 121.631 44.5161 121.976 44.6637C122.164 44.7457 122.296 44.9179 122.328 45.1147C122.361 45.3197 122.304 45.4345 122.246 45.5493C120.992 47.7389 118.491 48.8132 116.039 48.8132C111.84 48.8132 108.847 45.0573 108.847 41.0391C108.847 37.0208 111.84 33.265 116.039 33.265C120.237 33.2568 123.271 37.0044 123.28 41.0145V41.0145ZM121.943 40.4076C121.672 37.3242 119.311 34.5115 116.047 34.5115C112.783 34.5115 110.462 37.3242 110.151 40.4076H121.943V40.4076ZM143.428 34.3064V47.9439C143.428 48.3047 143.117 48.5671 142.805 48.5671C142.444 48.5671 142.182 48.2965 142.182 47.9439V45.3525C141.157 47.4109 139.32 48.8788 136.999 48.8788C133.293 48.8788 131.234 45.6641 131.234 42.2691V34.2736C131.234 33.962 131.505 33.6504 131.857 33.6504C132.218 33.6504 132.481 33.962 132.481 34.2736V42.2691C132.481 44.9507 133.998 47.6323 136.991 47.6323C141.19 47.6323 142.174 43.7042 142.174 39.3662V34.2736C142.174 33.9128 142.535 33.5438 142.977 33.675C143.248 33.7652 143.428 34.0276 143.428 34.3064V34.3064ZM175 39.8664V47.8619C175 48.2227 174.689 48.4851 174.377 48.4851C174.016 48.4851 173.754 48.2145 173.754 47.8619V39.8664C173.754 37.1848 172.237 34.5525 169.244 34.5525C165.488 34.5525 164.061 38.5707 164.061 41.6951V47.8619C164.061 48.2227 163.749 48.4851 163.438 48.4851C163.077 48.4851 162.814 48.2145 162.814 47.8619V39.8664C162.814 37.1848 161.297 34.5525 158.304 34.5525C154.507 34.5525 152.941 37.5456 153.08 41.5229C153.08 41.6131 153.121 41.7935 153.08 41.8345V47.8455C153.08 48.1489 152.875 48.4277 152.572 48.4769C152.154 48.5425 151.826 48.2555 151.826 47.8619V34.2162C151.826 33.9128 152.031 33.634 152.326 33.5848C152.744 33.5192 153.072 33.8062 153.072 34.1998V36.4796C154.146 34.5607 156.065 33.306 158.296 33.306C160.838 33.306 162.806 34.9133 163.61 37.2832C164.635 34.9625 166.644 33.306 169.235 33.306C172.901 33.306 175 36.4714 175 39.8664" fill="#171717"/>
</svg>
