<svg width="190" height="70" viewBox="0 0 190 70" fill="none" xmlns="http://www.w3.org/2000/svg">
<g clip-path="url(#clip0_1341_6835)">
<path d="M104.139 34.5638H100.903V46.62H96.3953V34.5638H94.0654V30.7003H96.3953V29.1924C96.3953 25.2951 98.8269 23.2617 102.521 23.2617C103.091 23.2698 103.659 23.3378 104.215 23.4648V27.9807C103.732 27.7783 103.214 27.6747 102.69 27.6758C102.455 27.6596 102.218 27.6912 101.996 27.7689C101.771 27.849 101.569 27.9792 101.403 28.1499C101.233 28.3164 101.102 28.5193 101.021 28.7431C100.937 28.9644 100.902 29.2015 100.92 29.4377V30.6411H104.156L104.139 34.5638ZM110.917 46.62H106.35V23.6427H110.917V46.62Z" fill="#171717"/>
<path d="M121.057 29.7001C122.771 29.6951 124.447 30.1991 125.873 31.1476C127.299 32.0962 128.412 33.4468 129.07 35.0285C129.728 36.6101 129.901 38.3517 129.568 40.0321C129.235 41.7124 128.411 43.2559 127.2 44.4672C125.988 45.6785 124.445 46.5031 122.764 46.836C121.084 47.169 119.343 46.9954 117.761 46.3375C116.179 45.6797 114.828 44.567 113.88 43.1405C112.931 41.7141 112.428 40.0382 112.433 38.3252C112.415 37.1899 112.628 36.0627 113.06 35.0123C113.481 33.9568 114.116 32.9995 114.923 32.1997C115.726 31.3924 116.682 30.755 117.736 30.3256C118.79 29.8962 119.92 29.6834 121.057 29.7001V29.7001ZM121.057 42.5614C121.601 42.5528 122.137 42.4356 122.634 42.2168C123.131 41.998 123.58 41.6819 123.953 41.2872C124.327 40.8925 124.617 40.427 124.808 39.9183C124.999 39.4096 125.086 38.8681 125.065 38.3252C125.091 37.7782 125.005 37.2315 124.813 36.7188C124.62 36.2061 124.326 35.738 123.947 35.3429C123.573 34.9512 123.123 34.6398 122.625 34.4278C122.127 34.2158 121.591 34.1064 121.049 34.1059C119.925 34.1059 118.848 34.5522 118.054 35.3466C117.259 36.141 116.813 37.2186 116.813 38.3421C116.813 39.4656 117.259 40.5432 118.054 41.3377C118.848 42.1321 119.925 42.5783 121.049 42.5783L121.057 42.5614Z" fill="#171717"/>
<path d="M134.445 30.0409L137.376 41.055L140.308 32.2943L139.511 30.0322H144.019L147.882 41.0463L150.746 30.0322H155.431L150.5 46.6125H145.764L142.468 37.5217L139.384 46.6125H134.623L129.726 30.0322L134.445 30.0409Z" fill="#171717"/>
<path d="M52.8987 38.2232C52.4633 38.5166 52.1242 38.9322 51.9238 39.4175C51.7234 39.9028 51.6705 40.4363 51.7719 40.9515C51.8725 41.4665 52.1264 41.9391 52.5005 42.3071C52.8719 42.6797 53.3456 42.9335 53.8615 43.036C54.3775 43.1386 54.9123 43.0852 55.398 42.883C55.8795 42.678 56.2898 42.3358 56.5776 41.8988C56.8655 41.4618 57.0181 40.9494 57.0162 40.4261V37.7656H54.3644C53.8414 37.7703 53.3314 37.9295 52.8987 38.2232V38.2232Z" fill="#171717"/>
<path d="M60.1837 9.56152C55.2274 9.5632 50.3829 11.0347 46.2627 13.7894C42.1425 16.5442 38.9317 20.4586 37.0361 25.0381C35.1406 29.6176 34.6455 34.6564 35.6134 39.5173C36.5814 44.3782 38.9689 48.8431 42.4741 52.3471C45.9793 55.8511 50.4449 58.2373 55.3061 59.2036C60.1673 60.1699 65.2059 59.6731 69.7847 57.776C74.3636 55.8789 78.2771 52.6664 81.0305 48.5453C83.7839 44.4242 85.2535 39.5792 85.2535 34.6229C85.2535 31.3311 84.605 28.0718 83.345 25.0307C82.085 21.9895 80.2383 19.2264 77.9102 16.8992C75.5822 14.5719 72.8184 12.7259 69.7769 11.467C66.7353 10.208 63.4755 9.56041 60.1837 9.56152ZM64.1064 40.4349C64.1067 41.874 63.7878 43.2953 63.1724 44.5962C62.557 45.8971 61.6606 47.0453 60.5478 47.9578C59.4351 48.8704 58.1336 49.5249 56.7374 49.8736C55.3412 50.2224 53.885 50.2571 52.4738 49.975C51.0622 49.6954 49.7304 49.1058 48.5744 48.2487C47.4184 47.3916 46.4672 46.2885 45.7895 45.019C45.1118 43.7495 44.7245 42.3451 44.6556 40.9077C44.5867 39.4703 44.8378 38.0356 45.3909 36.7071C46.1288 34.9302 47.3761 33.4117 48.9759 32.3427C50.5756 31.2737 52.4561 30.7021 54.3801 30.7003H57.015V37.7748H64.0895L64.1064 40.4349ZM71.1808 37.7831H64.1064V30.7003H71.1808V37.7831ZM74.7223 27.1674H66.7668C66.4175 27.1651 66.0713 27.2319 65.748 27.3643C65.4248 27.4967 65.131 27.6919 64.8836 27.9385C64.6363 28.1851 64.4402 28.4783 64.3068 28.8011C64.1734 29.1239 64.1053 29.4699 64.1064 29.8191V30.6664H57.015V29.8191C57.0195 27.2387 58.0466 24.7654 59.8713 22.9407C61.6959 21.1161 64.1693 20.0891 66.7498 20.0846H74.7054L74.7223 27.1674Z" fill="#171717"/>
</g>
<defs>
<clipPath id="clip0_1341_6835">
<rect width="120.308" height="50.1311" fill="white" transform="translate(35.123 9.56152)"/>
</clipPath>
</defs>
</svg>
