<svg width="145" height="42" viewBox="0 0 145 42" fill="none" xmlns="http://www.w3.org/2000/svg">
<g clip-path="url(#clip0_1556_5385)">
<path d="M53.9736 28.6666V10.217H55.2557V27.4497H64.0348V28.6666H53.9736V28.6666ZM70.375 28.9221C68.3868 28.9221 66.8493 28.281 65.6975 27.0641C64.6107 25.8471 64.0298 24.1193 64.0298 21.8757C64.0298 19.6972 64.5406 17.9043 65.6324 16.6223C66.7191 15.2751 68.1314 14.6341 69.9894 14.6341C71.592 14.6341 72.874 15.21 73.8356 16.3018C74.7971 17.4536 75.2428 18.9911 75.2428 20.9142V21.9408H65.3119C65.3119 23.7988 65.7626 25.2712 66.659 26.2327C67.4904 27.2594 68.7724 27.7051 70.375 27.7051C71.1412 27.7051 71.8474 27.64 72.4233 27.5148C72.9992 27.3846 73.7705 27.1943 74.6669 26.8087V28.0256C73.9007 28.3461 73.1945 28.6015 72.5535 28.7317C71.8373 28.862 71.1062 28.9271 70.375 28.9221V28.9221ZM69.9894 15.7909C68.6422 15.7909 67.6206 16.2417 66.7842 17.073C66.018 17.9694 65.5022 19.1864 65.377 20.8541H73.8356C73.8356 19.2515 73.515 18.0346 72.8089 17.1381C72.1679 16.2367 71.2063 15.7909 69.9894 15.7909ZM81.9085 14.6992C82.8701 14.6992 83.7665 14.8895 84.4727 15.21C85.1788 15.5956 85.8198 16.1716 86.3957 17.068H86.4609C86.3957 15.9813 86.3957 14.9546 86.3957 13.928V9.00003H87.6127V28.6666H86.7814L86.4609 26.5532C85.4342 28.0907 83.8967 28.9221 81.9736 28.9221C80.0505 28.9221 78.6433 28.3461 77.6166 27.1292C76.59 25.9773 76.1443 24.2445 76.1443 22.0059C76.1443 19.6371 76.6551 17.8392 77.6166 16.5622C78.5782 15.2801 80.0505 14.6992 81.9085 14.6992V14.6992ZM81.9085 15.7909C80.4362 15.7909 79.2843 16.3018 78.5131 17.3935C77.7468 18.4202 77.3612 19.9576 77.3612 22.0059C77.3612 25.9122 78.8987 27.8353 81.9085 27.8353C83.446 27.8353 84.5979 27.3846 85.304 26.4881C86.0101 25.5917 86.3907 24.1193 86.3907 22.0009V21.8106C86.3907 19.6972 86.0051 18.1598 85.304 17.2633C84.663 16.2367 83.5111 15.7909 81.9085 15.7909ZM100.934 14.9596V15.856L98.1146 16.0464C98.8808 17.0079 99.2664 18.0346 99.2664 19.1213C99.2664 20.4685 98.8157 21.4901 97.9193 22.3265C97.0228 23.1578 95.871 23.5434 94.3936 23.5434C93.7526 23.5434 93.3069 23.5434 93.1115 23.4783C92.6007 23.7337 92.2151 24.0542 91.9597 24.3747C91.7043 24.7604 91.5741 25.0809 91.5741 25.5266C91.5741 25.9723 91.7644 26.2928 92.0849 26.4881C92.4054 26.6784 92.9813 26.8087 93.7526 26.8087H96.1214C97.5937 26.8087 98.7456 27.1292 99.5168 27.7051C100.288 28.281 100.734 29.1775 100.734 30.3944C100.734 31.8668 100.158 32.9585 99.006 33.7248C97.8542 34.491 96.1865 34.8766 94.008 34.8766C92.2802 34.8766 90.933 34.5561 89.9715 33.85C89.0099 33.2089 88.5642 32.2474 88.5642 31.0955C88.5642 30.134 88.8847 29.3678 89.4607 28.7267C90.0366 28.0857 90.8679 27.7001 91.8295 27.4447C91.4439 27.2544 91.0632 26.994 90.8679 26.6784C90.6175 26.3679 90.4823 25.9873 90.4823 25.5917C90.4823 24.6953 91.0582 23.8639 92.2101 23.1578C91.4439 22.8373 90.8028 22.3264 90.3521 21.6203C89.9014 20.9142 89.7111 20.0828 89.7111 19.1864C89.7111 17.8392 90.1618 16.6874 90.9931 15.856C91.8896 15.0247 93.0414 14.6391 94.5188 14.6391C95.4152 14.6391 96.1214 14.7042 96.6322 14.8945H100.924V14.9596H100.934V14.9596ZM89.7862 30.9754C89.7862 32.8333 91.1935 33.7949 94.013 33.7949C97.5988 33.7949 99.3966 32.643 99.3966 30.3343C99.3966 29.503 99.1412 28.9271 98.5653 28.5414C97.9894 28.1558 97.0929 27.9655 95.8109 27.9655H93.5673C91.0683 28.0256 89.7862 28.9872 89.7862 30.9754V30.9754ZM90.8779 19.1864C90.8779 20.2731 91.1985 21.0444 91.8395 21.6854C92.4805 22.2613 93.3119 22.5819 94.4036 22.5819C95.5555 22.5819 96.4519 22.2613 97.0278 21.6854C97.6689 21.1095 97.9243 20.2782 97.9243 19.1864C97.9243 18.0346 97.6038 17.1381 96.9627 16.5622C96.3217 15.9863 95.4904 15.6657 94.3385 15.6657C93.2518 15.6657 92.3503 15.9863 91.7744 16.6273C91.1334 17.1982 90.8779 18.0946 90.8779 19.1864V19.1864Z" fill="#BDBDBD"/>
<path d="M107.149 28.922C105.16 28.922 103.623 28.281 102.471 27.0641C101.384 25.8471 100.803 24.1193 100.803 21.8757C100.803 19.6972 101.314 17.9043 102.406 16.6223C103.493 15.2751 104.905 14.6341 106.763 14.6341C108.366 14.6341 109.648 15.21 110.609 16.3018C111.571 17.4536 112.016 18.9911 112.016 20.9142V21.9408H102.151C102.151 23.7988 102.601 25.2712 103.498 26.2327C104.329 27.2594 105.611 27.7051 107.214 27.7051C107.98 27.7051 108.686 27.64 109.262 27.5148C109.838 27.3846 110.609 27.1943 111.506 26.8086V28.0256C110.739 28.3461 110.033 28.6015 109.392 28.7317C108.686 28.8619 107.98 28.922 107.149 28.922V28.922ZM106.828 15.7909C105.481 15.7909 104.459 16.2417 103.623 17.073C102.857 17.9694 102.341 19.1864 102.216 20.8541H110.674C110.674 19.2515 110.354 18.0345 109.648 17.1381C109.007 16.2367 108.045 15.7909 106.828 15.7909V15.7909ZM119.128 14.6992C119.704 14.6992 120.345 14.7643 120.986 14.8895L120.73 16.1064C120.139 15.9762 119.539 15.9111 118.938 15.9161C117.786 15.9161 116.824 16.427 116.053 17.3885C115.287 18.4152 114.901 19.6321 114.901 21.1696V28.6666H113.619V14.9596H114.706L114.836 17.4586H114.901C115.477 16.432 116.053 15.7308 116.694 15.3452C117.465 14.8945 118.231 14.6992 119.128 14.6992V14.6992ZM41.7385 9.64105H32.5737V21.9408H44.8735V12.8412C44.8785 11.1134 43.4663 9.64105 41.7385 9.64105V9.64105ZM29.7592 9.64105H28.2218C26.494 9.64105 25.0166 11.0483 25.0166 12.8462V14.3837H29.7592V9.64105V9.64105ZM25.0166 17.2633H29.7592V22.0059H25.0166V17.2633ZM40.1359 29.5631H41.6734C43.4012 29.5631 44.8785 28.1558 44.8785 26.3579V24.8255H40.1359V29.5631ZM32.5737 24.8255H37.3164V29.5681H32.5737V24.8255ZM25.0166 24.8255V26.3629C25.0166 28.0907 26.4239 29.5681 28.2218 29.5681H29.7592V24.8255H25.0166Z" fill="#BDBDBD"/>
</g>
<defs>
<clipPath id="clip0_1556_5385">
<rect width="96" height="25.8816" fill="white" transform="translate(25 9)"/>
</clipPath>
</defs>
</svg>
