<svg width="190" height="70" viewBox="0 0 190 70" fill="none" xmlns="http://www.w3.org/2000/svg">
<path fill-rule="evenodd" clip-rule="evenodd" d="M76.1621 23.6234V48.4034H85.6278V45.0174H80.1638V23.6234H76.1621ZM174.243 32.4734V28.3563C174.243 25.355 172.242 23.3926 168.587 23.3926C164.931 23.3926 162.931 25.3934 162.931 28.3563V43.6321C162.931 46.595 164.931 48.5958 168.587 48.5958C172.242 48.5958 174.243 46.6334 174.243 43.6321V36.0519H168.664V39.438H170.357V43.6321C170.357 44.5941 169.626 45.0943 168.587 45.0943C167.471 45.0943 166.971 44.5941 166.971 43.6321V28.3563C166.701 26.3939 170.472 26.4708 170.357 28.3563V32.4734H174.243ZM156.62 30.8958C156.62 32.8198 156.659 34.8976 156.736 37.1678L153.042 23.6234H148.694V48.4034H152.349V41.1311C152.349 39.1302 152.311 36.9369 152.234 34.6282L156.004 48.4419H160.237V23.6234H156.582V30.8958H156.62ZM141.768 48.365H145.769V23.6234H141.768V48.365ZM135.149 34.0511C135.149 35.013 134.649 35.5132 133.687 35.5132H131.879V27.0095H133.687C134.649 27.0095 135.149 27.5098 135.149 28.4717V34.0511ZM139.151 34.0511V28.4717C139.151 25.4704 137.266 23.6234 133.687 23.6234H127.877V48.4034H131.879V38.9378H133.11L135.649 48.4034H139.651L136.919 38.2067C138.42 37.3987 139.151 35.9365 139.151 34.0511ZM121.913 34.0511C121.913 35.013 121.413 35.5132 120.451 35.5132H118.642V27.0095H120.451C121.413 27.0095 121.913 27.5098 121.913 28.4717V34.0511ZM120.489 23.6234H114.679V48.4034H118.681V38.9378H120.489C124.068 38.9378 125.953 37.0908 125.953 34.0895V28.4717C125.914 25.4704 124.029 23.6234 120.489 23.6234ZM108.022 43.6321C108.253 45.5561 104.482 45.5561 104.713 43.6321V28.3563C104.482 26.4324 108.214 26.4324 108.022 28.3563V43.6321ZM106.368 23.3926C102.712 23.3926 100.711 25.355 100.711 28.3563V43.6321C100.711 46.595 102.712 48.5958 106.368 48.5958C110.023 48.5958 112.024 46.6334 112.024 43.6321V28.3563C112.024 25.355 109.984 23.3926 106.368 23.3926ZM94.3238 43.6321C94.5547 45.5561 90.7838 45.5561 91.0147 43.6321V28.3563C90.7838 26.4324 94.5162 26.4324 94.3238 28.3563V43.6321ZM92.6693 23.3926C89.0138 23.3926 87.013 25.355 87.013 28.3563V43.6321C87.013 46.595 89.0138 48.5958 92.6693 48.5958C96.3247 48.5958 98.3256 46.6334 98.3256 43.6321V28.3563C98.3256 25.355 96.2862 23.3926 92.6693 23.3926Z" fill="#171717"/>
<path fill-rule="evenodd" clip-rule="evenodd" d="M46.8021 23.5862H72.5056V23.7401L32.3728 48.2123L52.3045 32.3208L46.8021 23.5862ZM31.8341 -0.000976562V48.5586L11.5176 32.3208L31.8341 -0.000976562Z" fill="#171717"/>
</svg>
