<svg width="120" height="35" viewBox="0 0 120 35" fill="none" xmlns="http://www.w3.org/2000/svg">
<path d="M97.6472 18.0717C96.8415 17.5346 95.9464 17.1765 95.1408 16.7289C94.6037 16.4604 94.0666 16.1919 93.5295 15.7443C92.7239 15.1177 92.9029 13.775 93.7085 13.2379C94.8722 12.4322 96.8415 12.8798 97.1101 14.4911C97.1101 14.4911 97.1101 14.5806 97.1996 14.5806H98.9899C99.0794 14.5806 99.0794 14.5806 99.0794 14.4911C98.9899 13.4169 98.5423 12.4322 97.7367 11.8951C97.0206 11.3581 96.1254 11 95.2303 11C90.486 11 90.0384 16.0128 92.6344 17.5346C92.9029 17.7136 95.4093 18.9668 96.3045 19.5039C97.1996 20.041 97.4682 21.0256 97.1101 21.8313C96.752 22.5474 95.8569 23.0845 94.9617 22.995C93.9771 22.9055 93.1714 22.3684 92.9029 21.5627C92.8134 21.3837 92.8134 21.1152 92.8134 21.0256C92.8134 21.0256 92.8134 20.9361 92.7239 20.9361H90.7545C90.7545 20.9361 90.665 20.9361 90.665 21.0256C90.665 22.4579 91.0231 23.174 92.0078 23.8901C92.9029 24.6062 93.8876 24.8748 94.8722 24.8748C97.5577 24.8748 98.9004 23.353 99.1689 21.8313C99.4375 20.3095 98.9899 18.9668 97.6472 18.0717Z" fill="#BDBDBD"/>
<path d="M67.9291 11.2672C67.8396 11.2672 67.8396 11.2672 67.9291 11.2672L66.2283 16.5486C66.2283 16.6381 66.1388 16.6381 66.0493 16.5486L64.438 11.2672C64.438 11.2672 64.438 11.1777 64.3485 11.1777H61.484C61.484 11.1777 61.3945 11.1777 61.3945 11.2672V24.6945C61.3945 24.6945 61.3945 24.784 61.484 24.784H63.4534C63.4534 24.784 63.5429 24.784 63.5429 24.6945V14.4898C63.5429 14.4003 63.6324 14.4003 63.7219 14.4898L65.3332 19.7711L65.4227 20.1292C65.4227 20.1292 65.4227 20.2187 65.5122 20.2187H67.034C67.034 20.2187 67.1235 20.2187 67.1235 20.1292L67.213 19.7711L68.8242 14.4898C68.8242 14.4003 69.0033 14.4003 69.0033 14.4898V24.6945C69.0033 24.6945 69.0033 24.784 69.0928 24.784H71.0621C71.0621 24.784 71.1516 24.784 71.1516 24.6945V11.2672C71.1516 11.2672 71.1516 11.1777 71.0621 11.1777H67.9291V11.2672Z" fill="#BDBDBD"/>
<path d="M42.8655 11.2676H39.2849H37.3156H33.735C33.735 11.2676 33.6455 11.2676 33.6455 11.3571V13.0579C33.6455 13.0579 33.6455 13.1474 33.735 13.1474H37.3156V24.7843C37.3156 24.7843 37.3156 24.8738 37.4051 24.8738H39.3744C39.3744 24.8738 39.464 24.8738 39.464 24.7843V13.1474H43.0445C43.0445 13.1474 43.1341 13.1474 43.1341 13.0579L42.8655 11.2676C42.955 11.2676 42.8655 11.2676 42.8655 11.2676Z" fill="#BDBDBD"/>
<path d="M54.3223 24.784H56.1126C56.2021 24.784 56.2021 24.6945 56.2021 24.6945L52.532 11.2672C52.532 11.2672 52.532 11.1777 52.4425 11.1777H51.7263H50.5626H49.8465C49.8465 11.1777 49.757 11.1777 49.757 11.2672L46.0869 24.6945C46.0869 24.784 46.0869 24.784 46.1764 24.784H47.9667C47.9667 24.784 48.0562 24.784 48.0562 24.6945L49.1304 20.7558C49.1304 20.7558 49.1304 20.6663 49.2199 20.6663H53.1586C53.1586 20.6663 53.2481 20.6663 53.2481 20.7558L54.3223 24.784C54.2327 24.784 54.2327 24.784 54.3223 24.784ZM49.6675 18.876L51.0997 13.6841C51.0997 13.5946 51.1892 13.5946 51.2788 13.6841L52.711 18.876C52.711 18.9655 52.711 18.9655 52.6215 18.9655H49.757C49.6675 18.9655 49.6675 18.876 49.6675 18.876Z" fill="#BDBDBD"/>
<path d="M84.4004 24.784H86.1907C86.2802 24.784 86.2802 24.6945 86.2802 24.6945L82.6101 11.2672C82.6101 11.2672 82.6101 11.1777 82.5206 11.1777H81.8045H80.6408H79.9247C79.9247 11.1777 79.8351 11.1777 79.8351 11.2672L76.165 24.6945C76.165 24.784 76.165 24.784 76.2546 24.784H78.0448C78.0448 24.784 78.1344 24.784 78.1344 24.6945L79.2085 20.7558C79.2085 20.7558 79.2085 20.6663 79.2981 20.6663H83.2367C83.2367 20.6663 83.3262 20.6663 83.3262 20.7558L84.4004 24.784ZM79.8351 18.876L81.2674 13.6841C81.2674 13.5946 81.3569 13.5946 81.4464 13.6841L82.8786 18.876C82.8786 18.9655 82.8786 18.9655 82.7891 18.9655H79.9247C79.8351 18.9655 79.8351 18.876 79.8351 18.876Z" fill="#BDBDBD"/>
<path d="M22.3665 22.815V18.6973C22.3665 18.6973 22.3665 18.6078 22.456 18.6078H27.6478C27.6478 18.6078 27.7373 18.6078 27.7373 18.5183V16.8175C27.7373 16.8175 27.7373 16.728 27.6478 16.728H22.456C22.456 16.728 22.3665 16.728 22.3665 16.6385V13.0579C22.3665 13.0579 22.3665 12.9684 22.456 12.9684H28.3639C28.3639 12.9684 28.4535 12.9684 28.4535 12.8788V11.3571C28.4535 11.3571 28.4535 11.2676 28.3639 11.2676H22.3665H20.3971C20.3971 11.2676 20.3076 11.2676 20.3076 11.3571V13.0579V16.728V18.5183V22.815V24.6053C20.3076 24.6053 20.3076 24.6948 20.3971 24.6948H22.3665H28.543C28.543 24.6948 28.6325 24.6948 28.6325 24.6053V22.815C28.6325 22.815 28.6325 22.7255 28.543 22.7255L22.3665 22.815C22.456 22.815 22.3665 22.815 22.3665 22.815Z" fill="#BDBDBD"/>
<path d="M115.372 24.6948L108.658 17.8021V17.7126L114.745 11.4466C114.835 11.3571 114.745 11.3571 114.656 11.3571H112.149C112.149 11.3571 112.149 11.3571 112.06 11.3571L106.958 16.6385C106.868 16.728 106.868 16.6385 106.868 16.5489V11.3571C106.868 11.3571 106.868 11.2676 106.779 11.2676H104.809C104.809 11.2676 104.72 11.2676 104.72 11.3571V24.7843C104.72 24.7843 104.72 24.8738 104.809 24.8738H106.779C106.779 24.8738 106.868 24.8738 106.868 24.7843V18.8763C106.868 18.7868 106.958 18.7868 106.958 18.7868L112.776 24.7843C112.776 24.7843 112.776 24.7843 112.866 24.7843H115.372C115.372 24.7843 115.461 24.6948 115.372 24.6948Z" fill="#BDBDBD"/>
<path d="M11.5346 11.2672C11.4451 11.2672 11.4451 11.2672 11.5346 11.2672L9.83379 16.5486C9.83379 16.6381 9.74427 16.6381 9.65476 16.5486L8.0435 11.2672C8.0435 11.2672 8.04349 11.1777 7.95398 11.1777H5.08951C5.08951 11.1777 5 11.1777 5 11.2672V24.6945C5 24.6945 5 24.784 5.08951 24.784H7.05883C7.05883 24.784 7.14835 24.784 7.14835 24.6945V14.4898C7.14835 14.4003 7.23787 14.4003 7.32738 14.4898L8.93865 19.7711L9.02816 20.1292C9.02816 20.1292 9.02816 20.2187 9.11767 20.2187H10.6394C10.6394 20.2187 10.7289 20.2187 10.7289 20.1292L10.8185 19.7711L12.4297 14.4898C12.4297 14.4003 12.6087 14.4003 12.6087 14.4898V24.6945C12.6087 24.6945 12.6087 24.784 12.6983 24.784H14.6676C14.6676 24.784 14.7571 24.784 14.7571 24.6945V11.2672C14.7571 11.2672 14.7571 11.1777 14.6676 11.1777H11.5346V11.2672Z" fill="#BDBDBD"/>
</svg>
