<svg width="190" height="70" viewBox="0 0 190 70" fill="none" xmlns="http://www.w3.org/2000/svg">
<g clip-path="url(#clip0_1341_6782)">
<path d="M33.7762 39.2951C33.7762 40.4679 33.8093 41.5828 33.7671 42.6961C33.7248 43.8011 34.2261 44.6114 35.1152 45.1386C36.7533 46.1095 38.4361 47.0067 40.1073 47.9222C41.0801 48.4544 42.0396 48.3269 42.9676 47.7922C44.4888 46.9157 46.006 46.0317 47.5239 45.1494C48.4759 44.5965 49.0253 43.8077 49.0186 42.6712C49.0087 40.9629 48.983 39.2537 49.0269 37.5461C49.0593 36.298 48.5488 35.3999 47.4899 34.7965C45.9281 33.9067 44.3596 33.0302 42.7869 32.1603C41.6385 31.5246 40.5581 31.7712 39.49 32.4119C38.3549 33.0923 37.1916 33.7255 36.0423 34.3818C34.541 35.2401 33.0421 36.1026 31.5407 36.9609C30.3558 37.638 29.171 38.3151 27.9836 38.9872C26.5137 39.8182 25.0298 40.6252 23.5723 41.4785C22.3444 42.1978 21.1968 42.0852 20.0202 41.3486C19.0475 40.7402 18.0258 40.2113 17.0266 39.6452C15.4042 38.7256 13.781 37.8085 12.1637 36.8806C11.7079 36.6191 11.2439 36.3592 10.833 36.0364C10.2248 35.558 10.0177 34.8561 10.0143 34.1203C9.9986 30.7035 9.99611 27.2868 10.0135 23.87C10.0185 22.7841 10.5214 21.9862 11.5083 21.4515C13.1596 20.5567 14.777 19.6007 16.4134 18.6778C17.7789 17.9081 19.1485 17.1466 20.5182 16.3851C21.602 15.7834 22.6402 15.9315 23.6742 16.5432C25.0811 17.3742 26.5063 18.1746 27.9223 18.9899C29.4444 19.8664 30.9706 20.7347 32.4828 21.6278C33.3155 22.1194 33.6652 22.914 33.6875 23.8468C33.7124 24.9071 33.7049 25.9691 33.6809 27.0293C33.6768 27.1916 33.545 27.4175 33.405 27.5003C32.2052 28.2055 30.9897 28.8842 29.78 29.572C29.6996 29.6176 29.6284 29.678 29.5082 29.7641C29.4916 29.6225 29.4709 29.5232 29.4709 29.4239C29.4684 28.4729 29.4287 27.5202 29.4792 26.5725C29.5463 25.3193 29.0243 24.4204 27.9621 23.8154C26.377 22.9124 24.7862 22.0184 23.1862 21.1411C22.1264 20.56 21.1023 20.7653 20.1031 21.3455C18.9223 22.03 17.7259 22.6864 16.546 23.3709C16.0331 23.6689 15.5119 23.9677 15.0537 24.3393C14.4489 24.8285 14.2185 25.5105 14.2252 26.291C14.2392 28.0681 14.2533 29.846 14.221 31.6231C14.2011 32.719 14.685 33.5326 15.5708 34.0656C17.2147 35.0539 18.895 35.9834 20.5762 36.908C21.6417 37.494 22.6758 37.3193 23.6924 36.7043C24.9858 35.9213 26.3033 35.1772 27.6157 34.4249C29.2339 33.4978 30.8563 32.5791 32.4778 31.657C34.0753 30.749 35.6736 29.8435 37.2703 28.9339C38.1743 28.4191 39.0766 27.9034 39.9764 27.3811C41.0635 26.7496 42.1025 26.9342 43.1308 27.5359C44.111 28.1087 45.0995 28.6674 46.0855 29.2286C47.6117 30.0976 49.1396 30.9626 50.665 31.8317C51.1928 32.1321 51.7264 32.4251 52.241 32.7479C52.9776 33.2098 53.3256 33.8869 53.3239 34.7601C53.3181 38.2323 53.2974 41.7045 53.3347 45.1759C53.3471 46.3305 52.7936 47.0663 51.8681 47.5961C49.3584 49.033 46.8387 50.4533 44.3223 51.8778C43.8525 52.1435 43.3744 52.3951 42.9029 52.6599C41.7396 53.313 40.6509 53.0804 39.5704 52.4274C38.5993 51.8405 37.6034 51.2942 36.6157 50.7339C34.9702 49.8011 33.3188 48.879 31.6782 47.9379C31.1993 47.6631 30.7229 47.3734 30.292 47.0316C29.7452 46.597 29.5795 45.9473 29.5596 45.2893C29.5264 44.1744 29.5447 43.0578 29.5579 41.942C29.5596 41.822 29.6375 41.6499 29.7336 41.5928C30.9914 40.8536 32.2591 40.131 33.5243 39.4051C33.5831 39.3712 33.6461 39.3513 33.7762 39.2951Z" fill="#171717"/>
<path d="M137.63 28.5982C137.747 28.3308 137.842 28.066 137.979 27.8251C138.038 27.7191 138.182 27.5942 138.289 27.5925C139.627 27.5768 140.964 27.5826 142.358 27.5826C142.358 27.7638 142.358 27.9228 142.358 28.0825C142.358 32.7251 142.352 37.3685 142.363 42.0111C142.366 43.414 141.849 44.6233 141.033 45.7175C140.272 46.7364 139.277 47.4954 138.132 48.0367C136.847 48.6443 135.497 49.0085 134.056 48.9977C132.922 48.9894 131.792 49.0043 130.69 48.6708C129.463 48.2999 128.312 47.7868 127.303 46.9856C126.987 46.7339 126.668 46.4848 126.332 46.2191C127.251 45.1646 128.136 44.149 129.031 43.1218C129.873 43.8552 130.74 44.4909 131.802 44.793C133.467 45.2672 135.065 45.1207 136.524 44.1656C137.324 43.6425 137.682 42.8148 137.716 41.8687C137.741 41.1817 137.721 40.4931 137.721 39.6836C137.525 39.9178 137.399 40.0767 137.265 40.2299C136.41 41.2082 135.308 41.7743 134.06 42.0351C132.599 42.3405 131.148 42.2809 129.732 41.7379C128.031 41.0857 126.731 39.9708 125.834 38.3998C125.129 37.1657 124.76 35.8339 124.801 34.4012C124.846 32.8045 125.34 31.3561 126.262 30.0549C127.021 28.983 128 28.1587 129.167 27.5602C130.464 26.8956 131.835 26.754 133.281 26.8997C134.445 27.0173 135.548 27.2755 136.568 27.8392C136.92 28.0337 137.229 28.3076 137.63 28.5982ZM137.721 34.5675C137.721 34.2373 137.695 33.9037 137.726 33.576C137.821 32.5612 137.258 31.9131 136.513 31.3701C135.568 30.6807 134.502 30.4564 133.344 30.554C131.995 30.6674 130.912 31.2303 130.152 32.3634C129.537 33.2805 129.489 34.2985 129.694 35.334C129.986 36.8164 131.148 38.0704 132.541 38.3882C134.075 38.7392 135.549 38.4462 136.804 37.4471C137.373 36.9935 137.849 36.4398 137.729 35.5997C137.68 35.262 137.721 34.9119 137.721 34.5675Z" fill="#171717"/>
<path d="M67.2445 40.5003C67.2445 43.2267 67.2445 45.9167 67.2445 48.6341C65.6876 48.6341 64.1656 48.6341 62.6211 48.6341C62.6211 41.486 62.6211 34.3471 62.6211 27.1685C63.8905 27.1685 65.1424 27.1635 66.3936 27.1792C66.4822 27.1801 66.6206 27.315 66.648 27.4126C66.7789 27.8753 66.8791 28.3471 66.991 28.8164C67.6447 28.4191 68.2479 28.0119 68.8884 27.6734C69.7907 27.1966 70.7627 26.95 71.7843 26.825C73.8748 26.57 75.6827 27.1395 77.2935 28.4729C78.5554 29.5175 79.215 30.8964 79.5688 32.4351C80.0004 34.314 79.9226 36.1896 79.1271 37.9617C78.4452 39.4805 77.3855 40.6559 75.7938 41.3528C74.4308 41.9496 73.0321 42.2707 71.5689 42.1979C70.0145 42.1209 68.562 41.6772 67.3813 40.5822C67.3539 40.5582 67.3175 40.5441 67.2445 40.5003ZM70.756 38.5833C72.3353 38.6081 73.5657 38.0469 74.425 36.8029C75.0315 35.9247 75.15 34.9207 74.937 33.8844C74.5319 31.912 73.1954 30.6415 71.1148 30.6514C70.0874 30.6564 69.0856 30.9031 68.2778 31.5776C67.7284 32.037 67.2412 32.5601 67.3059 33.4035C67.3672 34.1981 67.3531 35.0027 67.3083 35.7989C67.2702 36.4876 67.5735 37.0049 68.001 37.4734C68.7567 38.3011 69.7278 38.6114 70.756 38.5833Z" fill="#171717"/>
<path d="M145.22 34.4645C145.189 32.1842 146.051 30.297 147.736 28.8022C148.914 27.7585 150.323 27.1435 151.888 26.9258C152.534 26.8356 153.192 26.7454 153.84 26.7669C156.295 26.8513 158.438 27.679 160.057 29.5927C160.936 30.6331 161.456 31.8498 161.661 33.2072C162.01 35.5082 161.454 37.5717 160.036 39.391C159.267 40.3784 158.214 41.0108 157.055 41.471C155.759 41.9867 154.406 42.2035 153.025 42.1207C150.738 41.9833 148.658 41.3005 147.048 39.5723C146.083 38.536 145.498 37.3052 145.34 35.889C145.289 35.4164 145.26 34.9404 145.22 34.4645ZM157.007 34.4389C156.991 34.3362 156.948 34.1632 156.938 33.9894C156.885 33.0632 156.557 32.238 155.915 31.5825C155.146 30.797 154.189 30.5023 153.076 30.6306C152.009 30.7539 151.177 31.2497 150.558 32.0857C149.761 33.1617 149.704 34.3743 150.038 35.6266C150.292 36.5785 150.729 37.4194 151.579 37.9814C152.275 38.4424 153.056 38.4971 153.864 38.4151C154.785 38.3208 155.564 37.9317 156.151 37.234C156.804 36.456 156.951 35.4884 157.007 34.4389Z" fill="#171717"/>
<path d="M98.0831 34.5002C98.0757 36.663 97.2678 38.4964 95.7813 40.0168C94.7547 41.0672 93.439 41.6681 92.0088 41.9495C91.1596 42.1167 90.2755 42.2309 89.4146 42.1945C86.9545 42.0911 84.7439 41.3188 83.0967 39.3878C82.2855 38.4368 81.8745 37.2863 81.6351 36.0563C81.2838 34.2544 81.5514 32.5361 82.3477 30.927C83.1754 29.2551 84.5724 28.165 86.314 27.4962C87.629 26.9913 88.9895 26.7596 90.3857 26.8473C92.6949 26.9913 94.7315 27.8025 96.2669 29.5853C97.2139 30.6853 97.8702 31.9517 97.9663 33.4457C97.9903 33.7983 98.0433 34.1493 98.0831 34.5002ZM93.3586 34.5184C93.3205 34.1683 93.3022 33.8141 93.2393 33.4681C93.0951 32.6776 92.7413 31.9766 92.1563 31.4303C91.3543 30.682 90.3915 30.3832 89.2895 30.5554C88.1667 30.73 87.2628 31.2407 86.72 32.2588C86.1782 33.2769 86.0564 34.3827 86.3016 35.4959C86.5568 36.6531 87.1807 37.5966 88.2629 38.1512C88.8586 38.4566 89.519 38.4748 90.1876 38.4186C90.9184 38.3573 91.5415 38.0966 92.0925 37.6207C93.0446 36.7996 93.3503 35.7277 93.3586 34.5184Z" fill="#171717"/>
<path d="M169.192 41.7805C167.621 41.7805 166.108 41.7805 164.575 41.7805C164.575 37.0552 164.575 32.3505 164.575 27.6136C165.983 27.6136 167.396 27.6136 168.822 27.6136C168.924 28.3089 169.027 29.0107 169.136 29.7548C169.494 29.3352 169.798 28.928 170.154 28.5729C171.137 27.5954 172.314 27.0541 173.713 26.9034C174.892 26.776 176.021 26.8455 177.097 27.3388C178.453 27.9596 179.344 28.9718 179.537 30.489C179.611 31.0692 179.622 31.661 179.623 32.2471C179.632 35.2632 179.627 38.2793 179.627 41.2955C179.627 41.4453 179.627 41.5951 179.627 41.7722C178.052 41.7722 176.503 41.7722 174.906 41.7722C174.906 41.6191 174.906 41.4726 174.906 41.3253C174.906 38.4747 174.916 35.6233 174.9 32.7726C174.895 32.0807 174.684 31.445 174.08 31.013C173.614 30.6802 173.078 30.6082 172.534 30.6719C170.608 30.8954 169.857 32.2744 169.457 33.9215C169.282 34.6391 169.219 35.3965 169.203 36.1381C169.167 37.8589 169.192 39.5813 169.192 41.3029C169.192 41.4519 169.192 41.6009 169.192 41.7805Z" fill="#171717"/>
<path d="M115.166 48.7327C113.675 48.7327 112.228 48.7327 110.74 48.7327C111.04 48.0731 111.326 47.4349 111.62 46.8017C112.388 45.1488 113.155 43.495 113.934 41.8479C114.153 41.3869 114.188 40.9871 113.937 40.4938C112.441 37.5497 110.98 34.5873 109.517 31.6266C108.864 30.3065 108.23 28.9772 107.571 27.6156C107.684 27.6032 107.784 27.5825 107.884 27.5825C109.402 27.5808 110.921 27.5866 112.439 27.575C112.689 27.5734 112.845 27.633 112.951 27.8714C113.921 30.0515 114.897 32.23 115.877 34.4061C116.108 34.9192 116.363 35.4216 116.647 36.0126C116.878 35.5152 117.075 35.1038 117.263 34.6883C117.722 33.6677 118.174 32.6447 118.635 31.625C119.197 30.3834 119.769 29.1477 120.324 27.9028C120.435 27.6545 120.579 27.5692 120.854 27.5734C122.077 27.5891 123.301 27.58 124.59 27.58C121.432 34.666 118.301 41.694 115.166 48.7327Z" fill="#171717"/>
<path d="M100.964 41.7712C100.964 33.1789 100.964 24.6171 100.964 16.0322C102.494 16.0322 104.006 16.0322 105.552 16.0322C105.552 24.5973 105.552 33.1698 105.552 41.7712C104.041 41.7712 102.519 41.7712 100.964 41.7712Z" fill="#171717"/>
</g>
<defs>
<clipPath id="clip0_1341_6782">
<rect width="169.629" height="37.0454" fill="white" transform="translate(10 16)"/>
</clipPath>
</defs>
</svg>
