<svg width="145" height="42" viewBox="0 0 145 42" fill="none" xmlns="http://www.w3.org/2000/svg">
<g clip-path="url(#clip0_1556_5396)">
<path d="M68.8134 26.8839H71.6298L69.299 22.2385C70.7072 21.7367 71.565 20.5552 71.565 19.0013C71.565 16.9618 70.1083 15.408 67.8422 15.408H63.2939V26.8839H65.8514V22.6108H66.7578L68.8134 26.8839ZM65.8514 20.4095V17.6255H67.3567C68.4088 17.6255 68.9753 18.1596 68.9753 19.0175C68.9753 19.8268 68.4088 20.4095 67.3567 20.4095H65.8514Z" fill="#BDBDBD"/>
<path d="M72.6523 24.6665C72.6523 25.9452 73.6721 27.1106 75.4364 27.1106C76.5046 27.1106 77.2816 26.6573 77.7024 25.9775C77.7024 26.5279 77.7672 26.8192 77.7833 26.884H80.0008C79.9847 26.803 79.9037 26.2689 79.9037 25.6376V21.7044C79.9037 20.0534 78.9487 18.5966 76.3428 18.5966C73.9796 18.5966 72.9113 20.1181 72.8142 21.2674L74.9508 21.7044C74.9993 21.1055 75.4687 20.5228 76.3266 20.5228C77.1035 20.5228 77.5082 20.9275 77.5082 21.3968C77.5082 21.672 77.3625 21.8824 76.9255 21.9472L75.0317 22.2385C73.7044 22.4328 72.6523 23.2421 72.6523 24.6665V24.6665ZM76.0352 25.3301C75.3554 25.3301 75.0803 24.9254 75.0803 24.5046C75.0803 23.9381 75.4687 23.6953 75.9867 23.6144L77.5082 23.3716V23.7277C77.5082 24.974 76.7636 25.3301 76.0352 25.3301Z" fill="#BDBDBD"/>
<path d="M87.0894 18.8394C86.9276 18.7909 86.6848 18.7585 86.442 18.7585C85.7945 18.7585 84.7748 19.0175 84.354 19.9239V18.8394H81.9746V26.8839H84.4349V23.3715C84.4349 21.7691 85.3251 21.1864 86.3125 21.1864C86.5553 21.1864 86.8143 21.2026 87.0894 21.2673V18.8394Z" fill="#BDBDBD"/>
<path d="M91.0408 26.8839V18.8394H88.5805V26.8839H91.0408ZM88.3701 16.3791C88.3701 17.1722 89.0176 17.8196 89.7945 17.8196C90.6038 17.8196 91.2512 17.1722 91.2512 16.3791C91.2512 15.586 90.6038 14.9385 89.7945 14.9385C89.0176 14.9385 88.3701 15.586 88.3701 16.3791V16.3791Z" fill="#BDBDBD"/>
<path d="M95.5766 26.8839V25.9774C95.9489 26.5925 96.7744 27.0619 97.8427 27.0619C100.093 27.0619 101.679 25.2976 101.679 22.8373C101.679 20.4256 100.271 18.6451 97.9398 18.6451C96.8391 18.6451 95.949 19.0983 95.609 19.6001V15.1651H93.1973V26.8839H95.5766ZM99.2185 22.8535C99.2185 24.197 98.3606 24.8606 97.4057 24.8606C96.4507 24.8606 95.5766 24.1808 95.5766 22.8535C95.5766 21.4939 96.4507 20.8626 97.4057 20.8626C98.3606 20.8626 99.2185 21.4939 99.2185 22.8535Z" fill="#BDBDBD"/>
<path d="M105.726 26.8839V15.1651H103.266V26.8839H105.726Z" fill="#BDBDBD"/>
<path d="M109.758 21.8986C109.806 21.2997 110.324 20.539 111.36 20.539C112.525 20.539 112.946 21.2835 112.979 21.8986H109.758ZM113.157 23.9866C112.93 24.6179 112.428 25.0387 111.538 25.0387C110.583 25.0387 109.758 24.3913 109.709 23.4849H115.309C115.326 23.4363 115.358 23.064 115.358 22.7241C115.358 20.1343 113.82 18.5966 111.328 18.5966C109.24 18.5966 107.313 20.2476 107.313 22.8374C107.313 25.5405 109.288 27.1267 111.506 27.1267C113.545 27.1267 114.824 25.9613 115.212 24.5693L113.157 23.9866Z" fill="#BDBDBD"/>
</g>
<g clip-path="url(#clip1_1556_5396)">
<path d="M50.5815 7.99997H34.3954C31.4156 7.99997 29 10.4156 29 13.3953V29.5815C29 32.5613 31.4156 34.9769 34.3954 34.9769H50.5815C53.5613 34.9769 55.9769 32.5613 55.9769 29.5815V13.3953C55.9769 10.4156 53.5613 7.99997 50.5815 7.99997Z" fill="#BDBDBD"/>
<path d="M47.6163 21.3896C48.466 21.1688 49.2221 20.5333 49.2221 19.2553C49.2221 17.1277 47.4156 16.6325 45.1006 16.6325H35.8809V26.2136H39.7614V22.962H44.3646C45.0738 22.962 45.4887 23.243 45.4887 23.9388V26.2136H49.3693V23.8184C49.3693 22.5137 48.6333 21.6907 47.6163 21.3896ZM44.4315 20.3794H39.7614V19.4427H44.4315C44.94 19.4427 45.2478 19.5096 45.2478 19.911C45.2478 20.3125 44.94 20.3794 44.4315 20.3794Z" fill="#FFFFFA"/>
</g>
<defs>
<clipPath id="clip0_1556_5396">
<rect width="53.2794" height="13.4884" fill="white" transform="translate(62.7217 14.7442)"/>
</clipPath>
<clipPath id="clip1_1556_5396">
<rect width="26.9769" height="26.9769" fill="white" transform="translate(29 7.99997)"/>
</clipPath>
</defs>
</svg>
