<svg width="190" height="70" viewBox="0 0 190 70" fill="none" xmlns="http://www.w3.org/2000/svg">
<path d="M61.9521 22.9378L57.1918 25.3634L34.2066 37.0715C34.129 36.4788 34.0902 35.8807 34.0902 35.2827C34.0995 27.7784 40.278 21.6079 47.7823 21.6079C50.1196 21.6079 52.4195 22.206 54.4598 23.3459L57.1838 21.9585L57.5905 21.7511C54.7341 19.6773 51.2943 18.5615 47.7662 18.5615C38.5909 18.5615 31.0411 26.1113 31.0411 35.2867V35.288C31.0411 35.7135 31.0571 36.1376 31.0892 36.5604C31.1815 37.7819 30.5273 38.9445 29.4369 39.5011L28 40.2343V43.6513L32.2305 41.4946L33.5991 40.7962L34.9491 40.1085L59.1813 27.7623L61.9039 26.3749L67.5325 23.5064V20.0921L61.9521 22.9378ZM67.5325 26.9248L36.3258 42.8138L33.6032 44.2039L28 47.059V50.4733L33.5644 47.6383L38.3246 45.2126L61.334 33.4886C61.4116 34.0853 61.4504 34.686 61.4504 35.288C61.4464 42.7964 55.2666 48.9722 47.7582 48.9722C45.4129 48.9722 43.1063 48.3701 41.0607 47.2235L40.8934 47.3118L37.9393 48.817C40.7957 50.8907 44.2368 52.0079 47.7662 52.0079C56.9389 52.0079 64.4888 44.4607 64.4914 35.288C64.4914 34.8586 64.474 34.4278 64.4433 34.0037C64.3509 32.7821 65.0038 31.6195 66.0929 31.0629L67.5325 30.3311V26.9248ZM114.535 29.2969C109.762 29.2969 106.059 32.8089 106.059 38.3572C106.059 43.5202 109.111 47.4831 114.632 47.4831C118.887 47.4831 121.679 44.9825 122.458 41.9936H119.406C118.659 43.7142 117.232 44.8835 114.632 44.8835C112.066 44.8835 109.338 43.0653 109.242 39.2991H122.685C123.044 33.7454 119.893 29.2969 114.535 29.2969ZM109.274 36.7651C109.535 33.2531 111.936 31.8296 114.535 31.8296C117.684 31.8296 119.47 34.298 119.568 36.7651H109.274ZM88.0868 33.5501L85.3681 32.9333C83.1512 32.445 81.5217 31.4081 81.5217 29.329C81.5217 26.6973 84.6992 25.8866 86.5214 25.8866C88.8628 25.8866 91.5881 26.8285 92.3667 29.523H95.5831C94.6398 25.0076 90.9004 23.093 86.6525 23.093C82.8529 23.093 78.1448 25.0102 78.1448 29.523C78.1448 33.4203 81.3584 35.2399 84.6069 35.9543L87.5422 36.5711C90.4977 37.2534 92.6076 38.2261 92.6076 40.7266C92.6076 43.0693 90.6275 44.6895 87.1208 44.6895C83.4509 44.6895 81.2434 42.9997 80.6266 39.754H77.3715C77.9882 44.4367 81.4962 47.4831 87.0485 47.4831C91.7312 47.4831 96.0112 45.0133 96.0112 40.435C96.0112 35.6948 91.6938 34.3301 88.0868 33.5501V33.5501ZM102.357 25.2042H99.4015V29.5886H96.64V31.9593H99.4015V42.676C99.4015 46.3137 100.181 47.059 103.526 47.059H105.67V44.5919H104.175C102.487 44.5919 102.357 44.137 102.357 42.3188V31.9593H105.67V29.5886H102.357V25.2042ZM160.914 29.4909C158.608 29.5886 156.855 30.6616 155.979 32.6403V29.5886H153.086V47.059H156.042V37.9023C156.042 34.005 157.406 32.5507 160.134 32.5507C160.69 32.5507 161.244 32.5935 161.791 32.6805V29.523C161.499 29.4976 161.207 29.4869 160.914 29.4909ZM150.243 40.4724L150.275 36.4453C150.309 31.4763 148.23 29.2367 143.326 29.2367C139.949 29.2367 136.571 31.3479 136.312 35.1141H139.363C139.495 32.94 140.891 31.6409 143.358 31.6409C145.567 31.6409 147.32 32.6791 147.32 35.8941V36.3156C140.177 37.0956 135.501 38.3224 135.501 42.4525C135.501 45.6675 138.228 47.4871 141.508 47.4871C144.625 47.4871 146.412 46.4837 147.482 44.6628C147.507 45.4668 147.584 46.2696 147.709 47.0643H150.697C150.341 45.404 150.21 43.4239 150.243 40.4724V40.4724ZM147.547 39.7593C147.547 43.8814 144.918 45.1498 142.157 45.1498C140.046 45.1498 138.78 44.046 138.78 42.3883C138.78 39.9841 142.189 39.1733 147.547 38.6529V39.7593ZM124.675 23.5038H127.63V47.059H124.675V23.5038ZM130.583 23.5038H133.538V47.059H130.583V23.5038Z" fill="#171717"/>
</svg>
